# xmcd
#
# Track frame offsets:
#	150
#	18670
#	37140
#	57567
#	82900
#	104155
#	123922
#	144520
#	169392
#	189592
#
# Disc length: 2788 seconds
#
# Revision: 2
# Processed by: cddbd v1.4PL0 Copyright (c) Steve Scherf et al.
# Submitted via: audiograbber 1.80
#
DISCID=920ae20a
DTITLE=Peabo Bryson - Super Hits
DYEAR=1900
DGENRE=
TTITLE0=A Whole New World
TTITLE1=Beauty And The Beast
TTITLE2=Love Will Take Care Of You
TTITLE3=Can You Stop The Rain
TTITLE4=Closer Than Close
TTITLE5=Treat Her Like A Lady
TTITLE6=Lost In The Night
TTITLE7=Shower You With Love
TTITLE8=I Can`t Imagine
TTITLE9=Why Goodbye
EXTD=
EXTT0=
EXTT1=
EXTT2=
EXTT3=
EXTT4=
EXTT5=
EXTT6=
EXTT7=
EXTT8=
EXTT9=
PLAYORDER=
